:FULLY-SPECIFIED
:DEGREES
32
root -0.567874014377594 -0.567874014377594 -0.567874014377594 -0.5678755879732001 -0.5678755879732001 -0.5678755879732001
lhipjoint -9.671654586443837e-08 -1.5341245206083327e-07 1.0672170578144923e-06
lfemur -25.45992628219439 -0.41905814567649297 -15.221459055966935
ltibia 36.642940368742906 -1.486795017171161e-06 5.926314815752245e-07
lfoot -22.144294619429033 1.4719179599263967e-07 5.03238989225113
ltoes -51.92784163681551 -6.610872978730499e-07 1.5228396072652507e-06
rhipjoint 1.1005675908711953e-07 6.870210827458292e-07 -1.494104084495789e-06
rfemur -25.415642750710614 -0.42377380432900497 10.817583598027202
rtibia 41.49641815144061 2.66671017023576e-06 -3.9388620197293e-06
rfoot -31.03060807868928 1.3244462751217883e-06 -2.709224202919765
rtoes -13.679213440435458 -2.982961322433536e-07 -1.4979415127745057e-06
lowerback 22.34176734116515 1.6146704868910602 -0.8215898482433467
upperback -5.3543884885008035 1.947382768462427 -0.5734217549401034
thorax -17.08195477455422 0.92755313622266 -0.9780559818325575
lowerneck -11.457395592112624 -2.029057957114028 -1.9248847656666397
upperneck 23.5797988923852 -3.0151462414105206 2.3060364286666197
head 9.370881229926802 -1.331763944747426 0.7745436119620046
lclavicle -1.4085775951116125e-07 5.4855408257763046e-08 -1.0938974842598547e-06
lhumerus -30.098475087184713 24.40879090478069 9.062195099256307
lradius 53.47660069149424 -1.4875835911766644e-06 3.989402814728376e-06
lwrist -3.068800931064993e-07 -20.591958253172507 7.399532477543675e-08
lhand -4.562975323145072 2.6246558075710764e-07 -26.656099019086014
lfingers 7.125022823272814 9.845282338726802e-08 3.18924141240953e-07
lthumb 21.213298854421275 -1.2803152392500461e-07 2.20318914769186
rclavicle 1.398304276268298e-07 4.3880174074018323e-07 -1.3740421654916584e-06
rhumerus -37.49049171266062 -30.86411538748105 19.589073039603072
rradius 52.8647523456445 -2.083795206879094e-06 -5.20658205888525e-06
rwrist 1.0877220175125753e-06 62.68492854181661 2.4315315095351133e-06
rhand -6.972260092956778 2.0321462048512455e-07 -36.68780446630613
rfingers 7.125022396385991 5.1024341088409163e-08 -3.1892353057445414e-07
rthumb 18.897492480477187 1.5447771905696147e-06 -65.78980959509936
33
root -0.567874014377594 -0.567874014377594 -0.567874014377594 -0.5678755879732001 -0.5678755879732001 -0.5678755879732001
lhipjoint -9.671654586443837e-08 -1.5341245206083327e-07 1.0672170578144923e-06
lfemur -28.3833035960205 -2.3080570974438857 -15.915980011530513
ltibia 39.873763280131506 -2.409439834717542e-06 7.975538563687953e-07
lfoot -24.344836428487277 -7.057905282542061e-07 6.660160148361746
ltoes -54.83752954399762 -5.16574292255326e-07 1.6435883225250776e-06
rhipjoint 1.1005675908711953e-07 6.870210827458292e-07 -1.494104084495789e-06
rfemur -28.70280789256265 -2.319027448467984 11.836183369329543
rtibia 46.04910123328012 2.410704321481142e-06 -3.0395766206520836e-06
rfoot -32.35103732450907 5.59593202654929e-07 -1.2128381850230452
rtoes -14.404775044455803 -1.2339477391040485e-06 -1.5548975628994069e-06
lowerback 22.81135479943457 2.316239664069561 -1.5400984815328609
upperback -5.131382812099887 2.5824810782468925 -0.26916406813143606
thorax -17.427077403125793 1.2896215708467418 -0.4366266995626616
lowerneck -11.457395592112624 -2.029057957114028 -1.9248847656666397
upperneck 23.5797988923852 -3.0151462414105206 2.3060364286666197
head 9.370881229926802 -1.331763944747426 0.7745436119620046
lclavicle -1.4085775951116125e-07 5.4855408257763046e-08 -1.0938974842598547e-06
lhumerus -39.75563174334155 15.072904149066451 27.555798857316777
lradius 74.43411066904582 -5.194935834530354e-07 8.004221569138515e-06
lwrist -1.4313957849517427e-07 -10.181941434430074 3.451427575076762e-08
lhand -4.562975323145072 2.6246558075710764e-07 -26.656099019086014
lfingers 7.125022823272814 9.845282338726802e-08 3.18924141240953e-07
lthumb 21.213298854421275 -1.2803152392500461e-07 2.20318914769186
rclavicle 1.398304276268298e-07 4.3880174074018323e-07 -1.3740421654916584e-06
rhumerus -45.31045725567826 -22.26981642090094 8.303797360801125
rradius 67.75525117028388 -2.340607746078681e-06 -1.111849939414982e-05
rwrist 9.211041059698051e-07 59.46028695162688 2.05906504567553e-06
rhand -6.972260092956778 2.0321462048512455e-07 -36.68780446630613
rfingers 7.125022396385991 5.1024341088409163e-08 -3.1892353057445414e-07
rthumb 18.897492480477187 1.5447771905696147e-06 -65.78980959509936
34
root -0.567874014377594 -0.567874014377594 -0.567874014377594 -0.5678755879732001 -0.5678755879732001 -0.5678755879732001
lhipjoint -9.671654586443837e-08 -1.5341245206083327e-07 1.0672170578144923e-06
lfemur -33.18520149765356 -3.2802386897034093 -16.734415966563752
ltibia 44.0914460737494 -1.5922265881960588e-06 -3.1172855610735973e-07
lfoot -26.230007912998524 -8.078902010836776e-07 7.616645325578346
ltoes -57.549336625640706 8.699453164739011e-10 4.2191029827124205e-07
rhipjoint 1.1005675908711953e-07 6.870210827458292e-07 -1.494104084495789e-06
rfemur -34.82163286051857 -4.724116561138598 12.784489395015052
rtibia 53.55203330068786 2.6990797693398244e-06 -3.4336747239001116e-06
rfoot -33.981444460526134 1.4898242283386617e-06 1.136212854045611
rtoes -15.022905456794666 4.585372606497265e-07 -1.4881604674625694e-06
lowerback 23.74789667804838 2.885303704958343 -2.2814336603894105
upperback -4.3127846400738585 2.9955028308009752 0.019151887118302117
thorax -17.425243497333646 1.5401803370811953 0.17310443438672216
lowerneck -11.457395592112624 -2.029057957114028 -1.9248847656666397
upperneck 23.5797988923852 -3.0151462414105206 2.3060364286666197
head 9.370881229926802 -1.331763944747426 0.7745436119620046
lclavicle -1.4085775951116125e-07 5.4855408257763046e-08 -1.0938974842598547e-06
lhumerus -51.38652182433532 3.4522674626773466 47.94197204853326
lradius 96.81133352219251 2.3647072923444413e-07 7.606344661595659e-06
lwrist 3.853022220264561e-08 2.78817948217782 -9.290965568149562e-09
lhand -4.562975323145072 2.6246558075710764e-07 -26.656099019086014
lfingers 7.125022823272814 9.845282338726802e-08 3.18924141240953e-07
lthumb 21.213298854421275 -1.2803152392500461e-07 2.20318914769186
rclavicle 1.398304276268298e-07 4.3880174074018323e-07 -1.3740421654916584e-06
rhumerus -52.43147588055015 -12.46726382033475 -9.509978886147758
rradius 83.34054074295905 -1.6162709709214243e-06 -1.594921988699743e-05
rwrist 7.7118588761534e-07 55.776793252995674 1.7239267928906006e-06
rhand -6.972260092956778 2.0321462048512455e-07 -36.68780446630613
rfingers 7.125022396385991 5.1024341088409163e-08 -3.1892353057445414e-07
rthumb 18.897492480477187 1.5447771905696147e-06 -65.78980959509936
35
root -0.567874014377594 -0.567874014377594 -0.567874014377594 -0.5678755879732001 -0.5678755879732001 -0.5678755879732001
lhipjoint -9.671654586443837e-08 -1.5341245206083327e-07 1.0672170578144923e-06
lfemur -39.616739846569345 -2.0768133591302878 -17.46017479229638
ltibia 49.608831904150684 -3.157868828142573e-06 -9.813056449805465e-07
lfoot -27.061419519907496 -1.0860094033165758e-06 6.433261691020745
ltoes -58.299141132346364 6.044724067655012e-07 3.4780689570328544e-06
rhipjoint 1.1005675908711953e-07 6.870210827458292e-07 -1.494104084495789e-06
rfemur -44.80853738942528 -7.599230050742105 13.082683501346763
rtibia 67.01933926835002 5.7783914412939935e-06 -4.035453582516975e-06
rfoot -36.72515535578235 1.790178612016359e-06 5.48648434704885
rtoes -15.887897688758006 -1.3480228873090414e-06 -1.4507091053106498e-06
lowerback 24.579719803854847 3.2839003114287704 -2.900508132937615
upperback -2.921613417472954 3.1758740395158487 -0.014835139194261292
thorax -16.84604174816927 1.652263527917693 0.45491791947952925
lowerneck -11.457395592112624 -2.029057957114028 -1.9248847656666397
upperneck 23.5797988923852 -3.0151462414105206 2.3060364286666197
head 9.370881229926802 -1.331763944747426 0.7745436119620046
lclavicle -1.4085775951116125e-07 5.4855408257763046e-08 -1.0938974842598547e-06
lhumerus -61.3222306703182 -9.356153634528962 69.85615588727727
lradius 115.85698817369291 -4.910993011231259e-06 1.3561950299520311e-05
lwrist 2.0713032857566154e-07 14.456809133100254 -4.994408159362348e-08
lhand -4.562975323145072 2.6246558075710764e-07 -26.656099019086014
lfingers 7.125022823272814 9.845282338726802e-08 3.18924141240953e-07
lthumb 21.213298854421275 -1.2803152392500461e-07 2.20318914769186
rclavicle 1.398304276268298e-07 4.3880174074018323e-07 -1.3740421654916584e-06
rhumerus -56.288698855815205 -3.192652399211985 -33.59131088532418
rradius 98.06437270656637 -3.601198864527162e-06 -1.831598899299746e-05
rwrist 6.7754460735019e-07 52.95277299347845 1.514597339752644e-06
rhand -6.972260092956778 2.0321462048512455e-07 -36.68780446630613
rfingers 7.125022396385991 5.1024341088409163e-08 -3.1892353057445414e-07
rthumb 18.897492480477187 1.5447771905696147e-06 -65.78980959509936
